<svg xmlns="http://www.w3.org/2000/svg" xmlns:xlink="http://www.w3.org/1999/xlink" viewBox="0 0 141.73 141.73"><defs><style>.cls-1{fill:none;}.cls-2{fill:rgba(139, 148, 156, .2);}.cls-3{fill:url(#lock_grey);}</style><pattern id="lock_grey" data-name="lock grey" width="141.73" height="141.73" patternUnits="userSpaceOnUse" viewBox="0 0 141.73 141.73"><rect class="cls-1" width="141.73" height="141.73"/><path class="cls-2" d="M79.87,81.87a9.07,9.07,0,0,1-6,8.47V98a3,3,0,1,1-6-.08V90.34a9,9,0,1,1,12-8.47Zm-6,0a3,3,0,1,0-3,3A3,3,0,0,0,73.87,81.87Z"/><rect class="cls-2" x="133.32" y="78.87" width="16.83" height="6" rx="3"/><path class="cls-2" d="M67.87,146.73V135.9a3,3,0,0,1,3-3h0a3,3,0,0,1,3,3v10.83a3,3,0,0,1-3,3h0A3,3,0,0,1,67.87,146.73Z"/><path class="cls-2" d="M93.87,58.87h-39V46.52a15.73,15.73,0,0,1,16-15.65,15.9,15.9,0,0,1,10.34,3.82,3,3,0,0,0,4.1-.11h0a3,3,0,0,0-.12-4.35A21.95,21.95,0,0,0,48.87,46.52V58.87h-1a9,9,0,0,0-9,9v38a9,9,0,0,0,9,9h46a9,9,0,0,0,9-9v-38A9,9,0,0,0,93.87,58.87Zm3,47a2.93,2.93,0,0,1-3,3h-46a2.93,2.93,0,0,1-3-3v-38a2.92,2.92,0,0,1,3-3h46a2.93,2.93,0,0,1,3,3Z"/><rect class="cls-2" x="-8.42" y="78.87" width="16.83" height="6" rx="3"/><path class="cls-2" d="M67.87,5V-5.83a3,3,0,0,1,3-3h0a3,3,0,0,1,3,3V5a3,3,0,0,1-3,3h0A3,3,0,0,1,67.87,5Z"/></pattern></defs><title>pattern-locks-opened</title><g id="Capa_2" data-name="Capa 2"><g id="Capa_1-2" data-name="Capa 1"><rect class="cls-3" width="141.73" height="141.73"/></g></g></svg>