<svg xmlns="http://www.w3.org/2000/svg" xmlns:xlink="http://www.w3.org/1999/xlink" viewBox="0 0 141.73 141.73"><defs><style>.cls-1{fill:none;}.cls-2{fill:rgba(139, 148, 156, .2);}.cls-3{fill:url(#open_lock);}</style><pattern id="open_lock" data-name="open lock" width="141.73" height="141.73" patternUnits="userSpaceOnUse" viewBox="0 0 141.73 141.73"><rect class="cls-1" width="141.73" height="141.73"/><path class="cls-2" d="M102.87,67.87v38a9.05,9.05,0,0,1-9,9h-46a9,9,0,0,1-9-9v-38a9,9,0,0,1,9-9h1V46.52a21.84,21.84,0,0,1,22-21.65,22.1,22.1,0,0,1,22,22V47c0,.32,0,.92,0,.92v11h1A9,9,0,0,1,102.87,67.87Zm-48-9h32v-11s0-.65,0-1a16.07,16.07,0,0,0-16-16,15.73,15.73,0,0,0-16,15.65Zm42,9a2.93,2.93,0,0,0-3-3h-46a2.92,2.92,0,0,0-3,3v38a2.93,2.93,0,0,0,3,3h46a2.93,2.93,0,0,0,3-3Z"/><path class="cls-2" d="M79.87,81.87a9.07,9.07,0,0,1-6,8.47V98a3,3,0,1,1-6-.08V90.34a9,9,0,1,1,12-8.47Zm-6,0a3,3,0,1,0-3,3A3,3,0,0,0,73.87,81.87Z"/><rect class="cls-2" x="128.37" y="78.87" width="26.83" height="6" rx="3"/><path class="cls-2" d="M67.87,153.49V132.66a3,3,0,0,1,3-3h0a3,3,0,0,1,3,3v20.83a3,3,0,0,1-3,3h0A3,3,0,0,1,67.87,153.49Z"/><rect class="cls-2" x="-13.36" y="78.87" width="26.83" height="6" rx="3"/><path class="cls-2" d="M67.87,11.76V-9.07a3,3,0,0,1,3-3h0a3,3,0,0,1,3,3V11.76a3,3,0,0,1-3,3h0A3,3,0,0,1,67.87,11.76Z"/></pattern></defs><title>pattern-locks-closed</title><g id="Capa_2" data-name="Capa 2"><g id="Capa_1-2" data-name="Capa 1"><rect class="cls-3" width="141.73" height="141.73"/></g></g></svg>